<svg width="111" height="91" viewBox="0 0 111 91" fill="none" xmlns="http://www.w3.org/2000/svg">
<path d="M52.2012 78.8789C50.4759 78.3906 49.6133 77.4303 49.6133 75.998L50.9805 22.9219H50.2969L26.9082 71.6035C25.5085 74.11 23.5228 76.7956 20.9512 79.6602C18.3796 82.5247 15.4173 85.0801 12.0645 87.3262C8.71159 89.5723 5.74935 90.6953 3.17773 90.6953C1.64779 90.6953 0.882812 88.4655 0.882812 84.0059C0.882812 82.0202 2.34766 80.4414 5.27734 79.2695C8.72786 77.9349 11.5762 76.763 13.8223 75.7539C18.2493 73.7682 21.4395 71.0501 23.3926 67.5996C26.0293 61.903 30.668 52.0885 37.3086 38.1562C43.9818 24.224 48.4414 14.8652 50.6875 10.0801C52.0221 7.63867 53.9753 5.65299 56.5469 4.12305C59.151 2.56055 61.8691 1.7793 64.7012 1.7793C64.7012 1.81185 64.8965 1.92578 65.2871 2.12109C64.1478 10.7799 63.2852 20.8385 62.6992 32.2969C62.1458 43.7227 61.7715 51.0632 61.5762 54.3184H62.3086C62.8945 53.0488 63.8385 51.1934 65.1406 48.752C70.8047 37.9447 77.6569 24.3867 85.6973 8.07812L85.5996 8.17578C86.4785 6.74349 88.6107 5.19727 91.9961 3.53711C95.4141 1.8444 98.0508 0.965495 99.9062 0.900391L100.297 1.0957C95.8372 24.2402 92.9889 39.9466 91.752 48.2148C90.515 56.4505 89.8965 62.3262 89.8965 65.8418C89.8965 69.3574 90.6615 71.1152 92.1914 71.1152C94.5352 71.1152 100.639 66.2812 110.502 56.6133V62.1797C97.8066 74.5169 88.8711 80.6855 83.6953 80.6855C80.0169 80.6855 78.1777 77.2839 78.1777 70.4805C78.1777 65.5326 78.666 60.0964 79.6426 54.1719C81.0423 45.7409 82.1979 38.9863 83.1094 33.9082C84.0208 28.8301 84.7207 25.1029 85.209 22.7266C85.7298 20.3503 85.9902 18.9505 85.9902 18.5273C85.9902 18.1042 85.7949 17.8926 85.4043 17.8926C85.0137 17.8926 84.7533 18.0879 84.623 18.4785C64.6035 57.8991 53.7962 78.0326 52.2012 78.8789Z" fill="black"/>
</svg>
